<svg xmlns="http://www.w3.org/2000/svg" version="1.1" xmlns:xlink="http://www.w3.org/1999/xlink" xmlns:svgjs="http://svgjs.dev/svgjs" width="128" height="128" viewBox="0 0 128 128"><g transform="matrix(0.4835680751173709,0,0,0.4835680751173709,32.90426005603637,12.760752631578946)"><svg viewBox="0 0 57 95" data-background-color="#ffffff" preserveAspectRatio="xMidYMid meet" height="213" width="128" xmlns="http://www.w3.org/2000/svg" xmlns:xlink="http://www.w3.org/1999/xlink"><g id="tight-bounds" transform="matrix(1,0,0,1,0.1357235027049768,-0.24049999999999727)"><svg viewBox="0 0 56.72855299459004 95.48100000000001" height="95.48100000000001" width="56.72855299459004"><g><svg viewBox="0 0 56.72855299459004 95.48100000000001" height="95.48100000000001" width="56.72855299459004"><g><svg viewBox="0 0 56.72855299459004 95.48100000000001" height="95.48100000000001" width="56.72855299459004"><g id="textblocktransform"><svg viewBox="0 0 56.72855299459004 95.48100000000001" height="95.48100000000001" width="56.72855299459004" id="textblock"><g><svg viewBox="0 0 56.72855299459004 95.48100000000001" height="95.48100000000001" width="56.72855299459004"><g><svg viewBox="0 0 56.72855299459004 95.48100000000001" height="95.48100000000001" width="56.72855299459004"><g><svg xmlns="http://www.w3.org/2000/svg" xmlns:xlink="http://www.w3.org/1999/xlink" version="1.1" x="0" y="0" viewBox="17.561475360998553 1.7179999999999929 56.20729247574123 94.60365564741358" enable-background="new 0 0 100 100" xml:space="preserve" height="95.48100000000001" width="56.72855299459004" class="icon-icon-0" data-fill-palette-color="accent" id="icon-0"><path d="M24.615 95.688c-0.417-0.523-0.879-1.011-1.382-1.457-0.39-0.377-2.592-1.543-0.702-1.631 1.797-0.086 3.766 0.735 5.502 1.129 0.269 0.063 0.516-0.168 0.445-0.443-0.343-1.334-1.164-2.336-1.659-3.619-0.176 0.137-0.354 0.273-0.53 0.411 1.135 0.546 2.111 1.276 3.166 1.959 0.18 0.116 0.381 0.022 0.495-0.129 0.334-0.446 1.323 0.282 1.616 0.433 0.19 0.092 0.375 0.036 0.495-0.131 1.14-0.964 2.26-1.159 3.362-0.589 0.439 0.162 0.626-0.537 0.192-0.697-1.066-0.396-1.858-0.53-2.952-0.246-1.22 0.317-0.96 1.124-2.391 0.13-0.176-0.119-0.384-0.017-0.495 0.129-0.353 0.473-2.735-1.297-3.125-1.484-0.254-0.124-0.657 0.086-0.531 0.408 0.309 0.803 0.272 0.734 0.708 1.49 1.03 1.805 0.188 1.396-1.339 1-1.644-0.429-3.184-0.594-4.847-0.221-0.263 0.059-0.352 0.423-0.159 0.605 1.225 1.149 2.513 2.195 3.62 3.47C24.411 96.555 24.921 96.039 24.615 95.688L24.615 95.688z" fill="#096a2e" data-fill-palette-color="accent"></path><path d="M54.77 92.676c1.545-0.626 2.358 0.885 3.74 0.291 2.035-0.871 3.42-2.724 5.609-3.308-0.117-0.2-0.235-0.402-0.354-0.604-1.283 1.566-2.621 3.026-3.26 4.985-0.07 0.222 0.12 0.464 0.35 0.458 0.76-0.018 2.871-0.545 1.703 0.889-0.178 0.223-0.091 0.645 0.256 0.619 1.225-0.086 2.629-0.732 3.826-0.466 0.453 0.104 0.646-0.597 0.19-0.696-1.3-0.295-2.718 0.348-4.017 0.438 0.084 0.206 0.17 0.411 0.254 0.618 0.351-0.43 1.304-1.59 0.326-1.982-0.67-0.273-1.399-0.186-2.106-0.154 0.054-0.002 1.063-1.804 1.18-1.97 0.538-0.776 1.212-1.497 1.81-2.226 0.222-0.271 0.021-0.705-0.353-0.605-1.888 0.5-3.231 1.827-4.815 2.896-1.452 0.981-2.92-0.533-4.534 0.117C54.148 92.15 54.335 92.85 54.77 92.676L54.77 92.676z" fill="#096a2e" data-fill-palette-color="accent"></path><path d="M73.584 75.176c0 0-9.997-19.131-10.053-21.744 1.173 0.067 5.744-0.714 5.744-0.714 0.843-0.001 1.608-0.798 1.185-1.526 0 0-12.78-14.866-13.097-16.199l-0.475-0.805 8.4-0.273c0.843-0.003 1.188-0.6 0.768-1.33 0 0-18.305-23.729-20.231-30.867-1.79 7.137-20.042 30.902-20.042 30.902-0.42 0.733-0.074 1.329 0.77 1.328l7.261 0.26-0.473 0.812C31.472 39.448 20.86 51.238 20.86 51.238c-0.425 0.729-0.083 1.324 0.76 1.322 0 0 3.496 0.715 6.358 0.901-0.297 3.048-10.234 21.765-10.234 21.765-0.425 0.729-0.082 1.322 0.761 1.322 0 0 10.921 0.971 20.598 1.249-0.248 5.447-0.794 13.146-1.96 15.75 0.315 0.04 0.636 0.103 0.942 0.138 0.076-0.076 0.076-0.151 0.151-0.228 0.679 0.228 1.207 0.753 1.734 0.302 0.528 0.604 0.98 1.584 1.659 0.678 0.301 0.604 1.055-0.451 1.81-0.451 0.905-0.074 1.584 0.83 3.167 1.205 0.604-0.073 1.131 0.228 1.81 0.152 1.055-0.076 1.735-2.037 2.414-1.51 0.452-0.376 0.753-1.131 1.13-1.582 0.228 0.451 0.228 0.979 0.302 1.434 0.356-0.446 0.797-0.752 1.266-0.998-0.545-3.299-0.973-10.131-1.229-15.043 9.655-0.394 20.532-1.146 20.532-1.146C73.67 76.496 74.012 75.902 73.584 75.176z" fill="#096a2e" data-fill-palette-color="accent"></path></svg></g></svg></g></svg></g></svg></g></svg></g></svg></g><defs></defs></svg><rect width="56.72855299459004" height="95.48100000000001" fill="none" stroke="none" visibility="hidden"></rect></g></svg></g></svg>