<?xml version="1.0" encoding="UTF-8"?>
<svg version="1.1" viewBox="0 0 2000 191" xmlns="http://www.w3.org/2000/svg" xmlnsXlink="http://www.w3.org/1999/xlink">
<g transform="translate(-1.2121 -.49517)">
<svg width="2e3" height="191" data-background-color="#ffffff" viewBox="0 0 396 38" xmlns="http://www.w3.org/2000/svg" xmlnsXlink="http://www.w3.org/1999/xlink">
<g transform="translate(.24 .098516)">
<svg width="395.52" height="37.803" viewBox="0 0 395.52 37.80296771543766">
<svg width="395.52" height="37.803" viewBox="0 0 444.39591166901255 42.47442430647292">
<rect x="35.087" width="3.8113" height="42.474" rx="1%" fill="#31c48d" stroke="transparent" className="rect-r$-0" data-fill-palette-color="primary" data-palette-color="#31c48d" fillOpacity="1" strokeWidth="0"/>
<g transform="translate(48.876 .10566)">
<svg width="395.52" height="42.263" viewBox="0 0 395.52 42.26310876265963">
<svg width="395.52" height="42.263" viewBox="0 0 395.52 42.26310876265963">
<svg width="395.52" height="42.263" viewBox="0 0 395.52 42.26310876265963">
<g>
<svg width="395.52" height="42.263" data-palette-color="#31c48d" viewBox="1.7 -35.7 340.63 36.400000000000006">
<path d="m26.95-9.3v-8.95h8.75v18.25h-6.85v-2.15q-3.55 2.85-9.4 2.85-4.9 0-8.95-2.1t-6.42-6.13q-2.38-4.02-2.38-9.62 0-5.4 2.5-9.63 2.5-4.22 6.95-6.57t10.05-2.35q4.9 0 8.8 1.65t6.5 4.75l-6.3 5.7q-3.55-3.9-8.5-3.9-4.55 0-7.27 2.77-2.73 2.78-2.73 7.53 0 4.8 2.55 7.35t6.45 2.55q3.75 0 6.25-2zm34.65-18.05h-5.65v19.7h5.65v7.65h-21.25v-7.65h5.7v-19.7h-5.7v-7.65h21.25v7.65zm31.05-7.65h9.8l-15 35h-9.75l-14.95-35h10.7l9.5 22.8 9.7-22.8zm32.19 7.65h-5.65v19.7h5.65v7.65h-21.25v-7.65h5.7v-19.7h-5.7v-7.65h21.25v7.65zm25.25-8.35q6.25 0 9.7 3.97 3.45 3.98 3.45 11.33v20.4h-9.9v-20.1q0-3.7-1.67-5.55-1.68-1.85-4.68-1.85-3.1 0-5 1.97-1.9 1.98-1.9 5.93v19.6h-9.9v-35h9.6v4q3.55-4.7 10.3-4.7zm43.3 26.4v-8.95h8.75v18.25h-6.85v-2.15q-3.55 2.85-9.4 2.85-4.9 0-8.95-2.1t-6.43-6.13q-2.37-4.02-2.37-9.62 0-5.4 2.5-9.63 2.5-4.22 6.95-6.57t10.05-2.35q4.9 0 8.8 1.65t6.5 4.75l-6.3 5.7q-3.55-3.9-8.5-3.9-4.55 0-7.28 2.77-2.72 2.78-2.72 7.53 0 4.8 2.55 7.35t6.45 2.55q3.75 0 6.25-2zm45.24-21.9-3.29 7.2q-4.4-2.45-8.96-3.25v27.25h-9.89v-27.25q-4.65 0.8-8.96 3.25l-3.29-7.2q3.64-2.2 8.07-3.35t9.13-1.15q4.69 0 9.12 1.15t8.07 3.35zm24.45 31.2-6.35-9.3h-5.4v9.3h-9.9v-35h16q4.75 0 8.25 1.57 3.5 1.58 5.4 4.5 1.9 2.93 1.9 6.88 0 3.8-1.77 6.62-1.78 2.83-5.08 4.43l7.55 11h-10.6zm-0.1-22.05q0-2.45-1.55-3.8t-4.6-1.35h-5.5v10.25h5.5q3.05 0 4.6-1.33 1.55-1.32 1.55-3.77zm42.55 12.1 3 7.3q-2.7 1.55-6.55 2.45t-8 0.9q-5.6 0-9.53-1.35-3.92-1.35-5.89-3.75-1.98-2.4-1.98-5.55 0-2.75 1.5-4.85t4.15-3.25q-2.05-1.05-3.12-2.93-1.08-1.87-1.08-4.12 0-2.9 1.83-5.3 1.82-2.4 5.57-3.85t9.25-1.45q3.45 0 6.8 0.65t5.9 1.75l-2.7 7.4q-4.65-2.05-9.6-2.05-3.55 0-5.3 0.92-1.75 0.93-1.75 2.58 0 3 4.35 3h9.9v7.55h-10.55q-2.55 0-3.85 0.82-1.3 0.83-1.3 2.43 0 1.7 1.9 2.65t5.9 0.95q2.85 0 5.87-0.78 3.03-0.77 5.28-2.12zm33.8 0 3 7.3q-2.7 1.55-6.55 2.45t-8 0.9q-5.6 0-9.53-1.35-3.92-1.35-5.9-3.75-1.97-2.4-1.97-5.55 0-2.75 1.5-4.85t4.15-3.25q-2.05-1.05-3.13-2.93-1.07-1.87-1.07-4.12 0-2.9 1.82-5.3 1.83-2.4 5.58-3.85t9.25-1.45q3.45 0 6.8 0.65t5.9 1.75l-2.7 7.4q-4.65-2.05-9.6-2.05-3.55 0-5.3 0.92-1.75 0.93-1.75 2.58 0 3 4.35 3h9.9v7.55h-10.55q-2.55 0-3.85 0.82-1.3 0.83-1.3 2.43 0 1.7 1.9 2.65t5.9 0.95q2.85 0 5.87-0.78 3.03-0.77 5.28-2.12z" fill="#31c48d" className="wordmark-text-0" data-fill-palette-color="primary"/>
</svg>
</g>
</svg>
</svg>
</svg>
</g>
<g transform="translate(0 .10566)">
<svg width="25.11" height="42.263" viewBox="0 0 25.109969576760395 42.26310876265963">
<svg width="25.11" height="42.263" fill="#096a2e" className="icon-icon-0" data-fill-palette-color="accent" enableBackground="new 0 0 100 100" version="1.1" viewBox="17.561475360998553 1.7179999999999929 56.20729247574123 94.60365564741358" xmlSpace="preserve" xmlns="http://www.w3.org/2000/svg" xmlnsXlink="http://www.w3.org/1999/xlink">
<path d="m24.615 95.688c-0.417-0.523-0.879-1.011-1.382-1.457-0.39-0.377-2.592-1.543-0.702-1.631 1.797-0.086 3.766 0.735 5.502 1.129 0.269 0.063 0.516-0.168 0.445-0.443-0.343-1.334-1.164-2.336-1.659-3.619-0.176 0.137-0.354 0.273-0.53 0.411 1.135 0.546 2.111 1.276 3.166 1.959 0.18 0.116 0.381 0.022 0.495-0.129 0.334-0.446 1.323 0.282 1.616 0.433 0.19 0.092 0.375 0.036 0.495-0.131 1.14-0.964 2.26-1.159 3.362-0.589 0.439 0.162 0.626-0.537 0.192-0.697-1.066-0.396-1.858-0.53-2.952-0.246-1.22 0.317-0.96 1.124-2.391 0.13-0.176-0.119-0.384-0.017-0.495 0.129-0.353 0.473-2.735-1.297-3.125-1.484-0.254-0.124-0.657 0.086-0.531 0.408 0.309 0.803 0.272 0.734 0.708 1.49 1.03 1.805 0.188 1.396-1.339 1-1.644-0.429-3.184-0.594-4.847-0.221-0.263 0.059-0.352 0.423-0.159 0.605 1.225 1.149 2.513 2.195 3.62 3.47 0.307 0.35 0.817-0.166 0.511-0.517z" data-fill-palette-color="accent"/>
<path d="m54.77 92.676c1.545-0.626 2.358 0.885 3.74 0.291 2.035-0.871 3.42-2.724 5.609-3.308-0.117-0.2-0.235-0.402-0.354-0.604-1.283 1.566-2.621 3.026-3.26 4.985-0.07 0.222 0.12 0.464 0.35 0.458 0.76-0.018 2.871-0.545 1.703 0.889-0.178 0.223-0.091 0.645 0.256 0.619 1.225-0.086 2.629-0.732 3.826-0.466 0.453 0.104 0.646-0.597 0.19-0.696-1.3-0.295-2.718 0.348-4.017 0.438 0.084 0.206 0.17 0.411 0.254 0.618 0.351-0.43 1.304-1.59 0.326-1.982-0.67-0.273-1.399-0.186-2.106-0.154 0.054-2e-3 1.063-1.804 1.18-1.97 0.538-0.776 1.212-1.497 1.81-2.226 0.222-0.271 0.021-0.705-0.353-0.605-1.888 0.5-3.231 1.827-4.815 2.896-1.452 0.981-2.92-0.533-4.534 0.117-0.427 0.174-0.24 0.874 0.195 0.7z" data-fill-palette-color="accent"/>
<path d="m73.584 75.176s-9.997-19.131-10.053-21.744c1.173 0.067 5.744-0.714 5.744-0.714 0.843-1e-3 1.608-0.798 1.185-1.526 0 0-12.78-14.866-13.097-16.199l-0.475-0.805 8.4-0.273c0.843-3e-3 1.188-0.6 0.768-1.33 0 0-18.305-23.729-20.231-30.867-1.79 7.137-20.042 30.902-20.042 30.902-0.42 0.733-0.074 1.329 0.77 1.328l7.261 0.26-0.473 0.812c-1.869 4.428-12.481 16.218-12.481 16.218-0.425 0.729-0.083 1.324 0.76 1.322 0 0 3.496 0.715 6.358 0.901-0.297 3.048-10.234 21.765-10.234 21.765-0.425 0.729-0.082 1.322 0.761 1.322 0 0 10.921 0.971 20.598 1.249-0.248 5.447-0.794 13.146-1.96 15.75 0.315 0.04 0.636 0.103 0.942 0.138 0.076-0.076 0.076-0.151 0.151-0.228 0.679 0.228 1.207 0.753 1.734 0.302 0.528 0.604 0.98 1.584 1.659 0.678 0.301 0.604 1.055-0.451 1.81-0.451 0.905-0.074 1.584 0.83 3.167 1.205 0.604-0.073 1.131 0.228 1.81 0.152 1.055-0.076 1.735-2.037 2.414-1.51 0.452-0.376 0.753-1.131 1.13-1.582 0.228 0.451 0.228 0.979 0.302 1.434 0.356-0.446 0.797-0.752 1.266-0.998-0.545-3.299-0.973-10.131-1.229-15.043 9.655-0.394 20.532-1.146 20.532-1.146 0.839-2e-3 1.181-0.596 0.753-1.322z" data-fill-palette-color="accent"/>
</svg>
</svg>
</g>
</svg>
</svg>
<rect width="395.52" height="37.803" fill="none" visibility="hidden"/>
</g>
</svg>
</g>
</svg>
